<svg xmlns="http://www.w3.org/2000/svg" xmlns:xlink="http://www.w3.org/1999/xlink" width="1080" zoomAndPan="magnify" viewBox="0 0 810 1439.999935" height="1920" preserveAspectRatio="xMidYMid meet" version="1.0"><defs><clipPath id="2747e62a4c"><path d="M 364 799 L 777 799 L 777 1083.71875 L 364 1083.71875 Z M 364 799 " clip-rule="nonzero"/></clipPath><clipPath id="fe5c0b5169"><path d="M 270 356.222656 L 651 356.222656 L 651 683 L 270 683 Z M 270 356.222656 " clip-rule="nonzero"/></clipPath></defs><path fill="#ffffff" d="M 80.742188 986.433594 L 42.351562 919.878906 C 41.210938 917.910156 40.140625 915.902344 39.132812 913.863281 C 38.125 911.824219 37.1875 909.75 36.3125 907.648438 C 35.441406 905.546875 34.640625 903.417969 33.910156 901.261719 C 33.175781 899.109375 32.515625 896.933594 31.925781 894.734375 C 31.335938 892.535156 30.820312 890.320312 30.375 888.089844 C 29.929688 885.859375 29.558594 883.613281 29.261719 881.359375 C 28.964844 879.101562 28.742188 876.839844 28.59375 874.570312 C 28.441406 872.296875 28.367188 870.023438 28.367188 867.75 C 28.367188 865.472656 28.441406 863.199219 28.589844 860.929688 C 28.734375 858.660156 28.957031 856.394531 29.253906 854.140625 C 29.550781 851.882812 29.921875 849.640625 30.363281 847.40625 C 30.808594 845.175781 31.324219 842.960938 31.910156 840.761719 C 32.5 838.5625 33.160156 836.386719 33.890625 834.230469 C 34.621094 832.078125 35.421875 829.949219 36.292969 827.84375 C 37.160156 825.742188 38.097656 823.671875 39.105469 821.628906 C 40.109375 819.585938 41.183594 817.582031 42.320312 815.609375 L 115.75 688.425781 L 77.804688 666.515625 C 77.050781 666.082031 76.382812 665.550781 75.792969 664.914062 C 75.203125 664.277344 74.722656 663.570312 74.347656 662.785156 C 73.972656 662.003906 73.722656 661.1875 73.597656 660.328125 C 73.46875 659.472656 73.472656 658.613281 73.605469 657.757812 C 73.738281 656.902344 73.992188 656.082031 74.371094 655.304688 C 74.75 654.523438 75.238281 653.820312 75.832031 653.1875 C 76.425781 652.554688 77.097656 652.023438 77.851562 651.597656 C 78.605469 651.167969 79.402344 650.859375 80.25 650.671875 L 236.769531 616.15625 C 237.289062 616.042969 237.816406 615.976562 238.347656 615.960938 C 238.878906 615.941406 239.410156 615.972656 239.933594 616.054688 C 240.460938 616.136719 240.976562 616.265625 241.476562 616.441406 C 241.980469 616.621094 242.460938 616.839844 242.921875 617.105469 C 243.382812 617.375 243.816406 617.679688 244.21875 618.027344 C 244.625 618.371094 244.992188 618.753906 245.324219 619.167969 C 245.660156 619.582031 245.949219 620.023438 246.203125 620.492188 C 246.453125 620.964844 246.660156 621.453125 246.820312 621.957031 L 295.1875 774.765625 C 295.449219 775.59375 295.582031 776.441406 295.585938 777.304688 C 295.59375 778.171875 295.46875 779.019531 295.21875 779.851562 C 294.96875 780.679688 294.597656 781.453125 294.113281 782.171875 C 293.628906 782.890625 293.050781 783.519531 292.375 784.0625 C 291.699219 784.605469 290.957031 785.039062 290.152344 785.355469 C 289.34375 785.675781 288.511719 785.867188 287.644531 785.933594 C 286.78125 786 285.925781 785.9375 285.082031 785.746094 C 284.238281 785.554688 283.441406 785.242188 282.6875 784.808594 L 245.089844 763.097656 L 179.121094 877.355469 C 162.601562 907.574219 106.933594 1025.179688 187.027344 1026.574219 L 150.246094 1026.558594 C 146.738281 1026.5625 143.246094 1026.335938 139.769531 1025.882812 C 136.292969 1025.425781 132.859375 1024.746094 129.46875 1023.839844 C 126.082031 1022.933594 122.765625 1021.808594 119.527344 1020.46875 C 116.285156 1019.128906 113.148438 1017.578125 110.109375 1015.828125 C 107.070312 1014.074219 104.160156 1012.128906 101.378906 1009.992188 C 98.597656 1007.855469 95.964844 1005.546875 93.488281 1003.066406 C 91.007812 1000.585938 88.703125 997.953125 86.570312 995.167969 C 84.4375 992.382812 82.496094 989.472656 80.742188 986.433594 Z M 80.742188 986.433594 " fill-opacity="1" fill-rule="nonzero"/><path fill="#ffffff" d="M 329.328125 885.945312 L 329.328125 1017.9375 C 329.335938 1018.5 329.285156 1019.0625 329.179688 1019.617188 C 329.074219 1020.175781 328.914062 1020.714844 328.699219 1021.238281 C 328.484375 1021.765625 328.222656 1022.261719 327.90625 1022.734375 C 327.59375 1023.203125 327.238281 1023.640625 326.835938 1024.042969 C 326.4375 1024.441406 326 1024.796875 325.527344 1025.113281 C 325.058594 1025.425781 324.558594 1025.6875 324.035156 1025.902344 C 323.511719 1026.117188 322.96875 1026.277344 322.414062 1026.382812 C 321.859375 1026.488281 321.296875 1026.539062 320.730469 1026.535156 L 205.078125 1026.621094 C 204.753906 1026.621094 204.46875 1026.542969 204.21875 1026.535156 C 124.167969 1025.160156 179.800781 907.53125 196.308594 877.347656 L 320.730469 877.347656 C 321.296875 877.351562 321.855469 877.40625 322.40625 877.519531 C 322.960938 877.628906 323.496094 877.792969 324.019531 878.007812 C 324.539062 878.226562 325.035156 878.492188 325.503906 878.804688 C 325.972656 879.117188 326.40625 879.476562 326.804688 879.875 C 327.203125 880.273438 327.558594 880.707031 327.871094 881.175781 C 328.1875 881.644531 328.453125 882.140625 328.667969 882.660156 C 328.886719 883.179688 329.050781 883.71875 329.160156 884.269531 C 329.269531 884.824219 329.328125 885.382812 329.328125 885.945312 Z M 329.328125 885.945312 " fill-opacity="1" fill-rule="nonzero"/><g clip-path="url(#2747e62a4c)"><path fill="#ffffff" d="M 765.46875 911.945312 L 727.027344 978.472656 C 725.890625 980.445312 724.6875 982.375 723.425781 984.265625 C 722.160156 986.160156 720.835938 988.007812 719.453125 989.816406 C 718.066406 991.621094 716.625 993.378906 715.125 995.089844 C 713.625 996.800781 712.070312 998.460938 710.460938 1000.070312 C 708.855469 1001.679688 707.195312 1003.238281 705.484375 1004.738281 C 703.773438 1006.238281 702.015625 1007.683594 700.210938 1009.066406 C 698.40625 1010.453125 696.558594 1011.777344 694.664062 1013.042969 C 692.773438 1014.308594 690.84375 1015.511719 688.871094 1016.648438 C 686.902344 1017.789062 684.894531 1018.859375 682.855469 1019.867188 C 680.816406 1020.875 678.742188 1021.8125 676.640625 1022.683594 C 674.539062 1023.558594 672.410156 1024.359375 670.257812 1025.089844 C 668.101562 1025.824219 665.925781 1026.484375 663.726562 1027.074219 C 661.53125 1027.664062 659.316406 1028.179688 657.082031 1028.625 C 654.851562 1029.070312 652.605469 1029.441406 650.351562 1029.738281 C 648.09375 1030.035156 645.832031 1030.261719 643.5625 1030.410156 C 641.289062 1030.558594 639.015625 1030.636719 636.742188 1030.636719 L 489.882812 1030.636719 L 489.882812 1074.453125 C 489.882812 1075.320312 489.757812 1076.167969 489.5 1076.996094 C 489.242188 1077.824219 488.871094 1078.597656 488.382812 1079.3125 C 487.890625 1080.027344 487.308594 1080.652344 486.628906 1081.191406 C 485.949219 1081.730469 485.207031 1082.15625 484.398438 1082.472656 C 483.589844 1082.785156 482.753906 1082.972656 481.886719 1083.03125 C 481.023438 1083.09375 480.167969 1083.023438 479.324219 1082.828125 C 478.480469 1082.628906 477.6875 1082.3125 476.9375 1081.875 C 476.191406 1081.433594 475.523438 1080.894531 474.9375 1080.257812 L 366.785156 961.964844 C 366.425781 961.570312 366.109375 961.148438 365.828125 960.695312 C 365.546875 960.246094 365.308594 959.769531 365.117188 959.273438 C 364.925781 958.777344 364.78125 958.269531 364.679688 957.746094 C 364.582031 957.222656 364.535156 956.695312 364.535156 956.164062 C 364.535156 955.628906 364.582031 955.101562 364.679688 954.578125 C 364.78125 954.054688 364.925781 953.546875 365.117188 953.050781 C 365.308594 952.554688 365.546875 952.082031 365.828125 951.628906 C 366.109375 951.175781 366.425781 950.753906 366.785156 950.359375 L 474.9375 832.066406 C 475.523438 831.429688 476.191406 830.890625 476.9375 830.449219 C 477.6875 830.011719 478.480469 829.695312 479.324219 829.496094 C 480.167969 829.300781 481.023438 829.230469 481.890625 829.292969 C 482.753906 829.351562 483.589844 829.539062 484.398438 829.855469 C 485.207031 830.167969 485.949219 830.59375 486.628906 831.132812 C 487.308594 831.671875 487.890625 832.296875 488.382812 833.011719 C 488.871094 833.730469 489.242188 834.5 489.5 835.328125 C 489.757812 836.15625 489.882812 837.003906 489.882812 837.871094 L 489.882812 881.289062 L 621.816406 881.289062 C 656.246094 880.484375 785.929688 869.894531 747.089844 799.832031 L 765.46875 831.691406 C 767.226562 834.726562 768.777344 837.863281 770.121094 841.101562 C 771.464844 844.34375 772.59375 847.65625 773.5 851.042969 C 774.410156 854.429688 775.09375 857.863281 775.554688 861.339844 C 776.011719 864.816406 776.242188 868.308594 776.242188 871.816406 C 776.242188 875.324219 776.011719 878.816406 775.554688 882.292969 C 775.09375 885.769531 774.410156 889.203125 773.5 892.589844 C 772.59375 895.980469 771.464844 899.292969 770.121094 902.53125 C 768.777344 905.769531 767.226562 908.910156 765.46875 911.945312 Z M 765.46875 911.945312 " fill-opacity="1" fill-rule="nonzero"/></g><path fill="#ffffff" d="M 554.152344 746.90625 L 668.457031 680.914062 C 668.945312 680.628906 669.457031 680.390625 669.992188 680.203125 C 670.527344 680.019531 671.074219 679.886719 671.636719 679.808594 C 672.195312 679.734375 672.757812 679.710938 673.324219 679.746094 C 673.890625 679.785156 674.445312 679.875 674.992188 680.019531 C 675.539062 680.167969 676.066406 680.367188 676.574219 680.617188 C 677.082031 680.871094 677.558594 681.167969 678.003906 681.515625 C 678.453125 681.863281 678.863281 682.25 679.230469 682.679688 C 679.601562 683.109375 679.925781 683.570312 680.203125 684.0625 L 738.105469 784.175781 C 738.273438 784.457031 738.347656 784.742188 738.464844 784.964844 C 777.296875 854.980469 647.613281 865.617188 613.21875 866.40625 L 551.007812 758.65625 C 550.726562 758.164062 550.496094 757.652344 550.316406 757.117188 C 550.136719 756.585938 550.007812 756.039062 549.933594 755.476562 C 549.863281 754.917969 549.84375 754.355469 549.882812 753.792969 C 549.917969 753.230469 550.011719 752.675781 550.15625 752.132812 C 550.304688 751.585938 550.5 751.0625 550.75 750.554688 C 551 750.050781 551.292969 749.570312 551.636719 749.125 C 551.980469 748.675781 552.363281 748.265625 552.785156 747.890625 C 553.210938 747.519531 553.664062 747.191406 554.152344 746.90625 Z M 554.152344 746.90625 " fill-opacity="1" fill-rule="nonzero"/><g clip-path="url(#fe5c0b5169)"><path fill="#ffffff" d="M 358.597656 356.207031 L 435.433594 356.234375 C 437.710938 356.234375 439.984375 356.308594 442.253906 356.457031 C 444.527344 356.605469 446.789062 356.828125 449.046875 357.125 C 451.300781 357.421875 453.546875 357.789062 455.777344 358.234375 C 458.011719 358.675781 460.226562 359.191406 462.421875 359.78125 C 464.621094 360.371094 466.796875 361.027344 468.953125 361.761719 C 471.109375 362.492188 473.238281 363.292969 475.339844 364.160156 C 477.441406 365.03125 479.515625 365.96875 481.554688 366.976562 C 483.597656 367.980469 485.601562 369.054688 487.574219 370.191406 C 489.542969 371.328125 491.476562 372.527344 493.367188 373.792969 C 495.261719 375.054688 497.109375 376.378906 498.917969 377.765625 C 500.722656 379.148438 502.480469 380.589844 504.191406 382.089844 C 505.902344 383.589844 507.5625 385.144531 509.171875 386.753906 C 510.78125 388.363281 512.339844 390.023438 513.839844 391.730469 C 515.339844 393.441406 516.785156 395.199219 518.167969 397.003906 C 519.554688 398.808594 520.882812 400.660156 522.144531 402.550781 C 523.410156 404.441406 524.613281 406.371094 525.75 408.34375 L 599.183594 535.527344 L 637.132812 513.617188 C 637.882812 513.183594 638.679688 512.871094 639.523438 512.679688 C 640.371094 512.488281 641.222656 512.425781 642.089844 512.492188 C 642.953125 512.558594 643.785156 512.75 644.59375 513.070312 C 645.398438 513.386719 646.140625 513.820312 646.8125 514.363281 C 647.488281 514.90625 648.070312 515.535156 648.554688 516.253906 C 649.039062 516.972656 649.40625 517.746094 649.660156 518.574219 C 649.910156 519.402344 650.03125 520.25 650.027344 521.117188 C 650.023438 521.984375 649.886719 522.832031 649.628906 523.65625 L 601.261719 676.464844 C 601.101562 676.972656 600.894531 677.460938 600.640625 677.929688 C 600.390625 678.402344 600.097656 678.84375 599.765625 679.257812 C 599.433594 679.671875 599.0625 680.054688 598.660156 680.398438 C 598.253906 680.746094 597.824219 681.050781 597.363281 681.320312 C 596.902344 681.585938 596.417969 681.804688 595.917969 681.984375 C 595.414062 682.160156 594.902344 682.289062 594.375 682.371094 C 593.847656 682.449219 593.320312 682.484375 592.789062 682.464844 C 592.257812 682.449219 591.730469 682.382812 591.210938 682.269531 L 434.691406 647.75 C 433.84375 647.566406 433.042969 647.257812 432.289062 646.828125 C 431.539062 646.398438 430.863281 645.871094 430.269531 645.238281 C 429.679688 644.605469 429.191406 643.898438 428.8125 643.121094 C 428.433594 642.339844 428.175781 641.523438 428.042969 640.667969 C 427.914062 639.8125 427.910156 638.953125 428.035156 638.097656 C 428.164062 637.238281 428.414062 636.417969 428.789062 635.636719 C 429.164062 634.855469 429.644531 634.148438 430.234375 633.511719 C 430.824219 632.875 431.492188 632.339844 432.242188 631.910156 L 469.84375 610.199219 L 403.878906 495.941406 C 385.96875 466.527344 311.953125 359.511719 270.699219 428.183594 L 289.101562 396.339844 C 290.851562 393.300781 292.792969 390.386719 294.925781 387.605469 C 297.058594 384.820312 299.363281 382.1875 301.84375 379.707031 C 304.320312 377.222656 306.953125 374.914062 309.734375 372.777344 C 312.515625 370.644531 315.425781 368.699219 318.464844 366.945312 C 321.5 365.191406 324.640625 363.640625 327.878906 362.300781 C 331.121094 360.960938 334.433594 359.835938 337.824219 358.929688 C 341.210938 358.023438 344.644531 357.34375 348.121094 356.886719 C 351.597656 356.429688 355.09375 356.207031 358.597656 356.207031 Z M 358.597656 356.207031 " fill-opacity="1" fill-rule="nonzero"/></g><path fill="#ffffff" d="M 321.332031 621.730469 L 207.027344 555.734375 C 206.535156 555.457031 206.074219 555.132812 205.644531 554.761719 C 205.214844 554.394531 204.828125 553.984375 204.480469 553.539062 C 204.132812 553.089844 203.835938 552.613281 203.582031 552.105469 C 203.332031 551.597656 203.132812 551.070312 202.984375 550.523438 C 202.839844 549.976562 202.746094 549.421875 202.710938 548.855469 C 202.675781 548.289062 202.695312 547.726562 202.773438 547.167969 C 202.851562 546.605469 202.980469 546.058594 203.167969 545.523438 C 203.355469 544.988281 203.589844 544.476562 203.878906 543.988281 L 261.628906 443.789062 C 261.789062 443.503906 262 443.300781 262.136719 443.089844 C 303.351562 374.449219 377.40625 481.441406 395.289062 510.832031 L 333.078125 618.582031 C 332.792969 619.070312 332.464844 619.527344 332.09375 619.949219 C 331.71875 620.371094 331.308594 620.753906 330.863281 621.097656 C 330.414062 621.441406 329.9375 621.738281 329.429688 621.984375 C 328.925781 622.234375 328.398438 622.433594 327.855469 622.578125 C 327.308594 622.722656 326.753906 622.816406 326.191406 622.851562 C 325.628906 622.890625 325.070312 622.871094 324.507812 622.800781 C 323.949219 622.726562 323.402344 622.601562 322.867188 622.421875 C 322.335938 622.242188 321.820312 622.011719 321.332031 621.730469 Z M 321.332031 621.730469 " fill-opacity="1" fill-rule="nonzero"/></svg>